<svg width="22" height="19" viewBox="0 0 22 19" fill="none" xmlns="http://www.w3.org/2000/svg">
<path d="M21.1026 0.263173C20.8987 0.146409 20.6707 0.0662341 20.4316 0.0272285C20.1925 -0.0117772 19.9471 -0.00884926 19.7093 0.0358449C19.4715 0.080539 19.246 0.166124 19.0458 0.28771C18.8455 0.409296 18.6743 0.564501 18.542 0.744458L8.16761 14.8515L3.10815 10.7246C2.92964 10.579 2.72038 10.4658 2.4923 10.3916C2.26422 10.3173 2.02179 10.2834 1.77886 10.2918C1.28824 10.3088 0.82535 10.4969 0.492014 10.815C0.158679 11.133 -0.0177934 11.5548 0.00141939 11.9876C0.0206322 12.4204 0.233956 12.8288 0.594463 13.1229L7.23755 18.5411C7.23755 18.5411 7.42826 18.6859 7.51651 18.7366C7.72047 18.8534 7.94853 18.9337 8.18767 18.9727C8.4268 19.0118 8.67232 19.0089 8.91018 18.9642C9.14804 18.9195 9.37358 18.8339 9.57391 18.7122C9.77424 18.5906 9.94544 18.4353 10.0777 18.2553L21.6482 2.52206C21.7806 2.34215 21.8714 2.141 21.9157 1.9301C21.9599 1.7192 21.9566 1.50268 21.9059 1.29291C21.8552 1.08314 21.7582 0.884229 21.6204 0.707544C21.4826 0.53086 21.3066 0.37986 21.1026 0.263173Z" fill="#31373D"/>
</svg>
