<svg width="24" height="24" viewBox="0 0 24 24" fill="none" xmlns="http://www.w3.org/2000/svg">
<path d="M1 12C1 12.2652 1.10536 12.5196 1.29289 12.7071C1.48043 12.8946 1.73478 13 2 13H9.59L7.29 15.29C7.19627 15.383 7.12188 15.4936 7.07111 15.6154C7.02034 15.7373 6.9942 15.868 6.9942 16C6.9942 16.132 7.02034 16.2627 7.07111 16.3846C7.12188 16.5064 7.19627 16.617 7.29 16.71C7.38296 16.8037 7.49356 16.8781 7.61542 16.9289C7.73728 16.9797 7.86799 17.0058 8 17.0058C8.13201 17.0058 8.26272 16.9797 8.38458 16.9289C8.50644 16.8781 8.61704 16.8037 8.71 16.71L12.71 12.71C12.801 12.6149 12.8724 12.5028 12.92 12.38C13.02 12.1365 13.02 11.8635 12.92 11.62C12.8724 11.4972 12.801 11.3851 12.71 11.29L8.71 7.29C8.61676 7.19676 8.50607 7.1228 8.38425 7.07234C8.26243 7.02188 8.13186 6.99591 8 6.99591C7.86814 6.99591 7.73757 7.02188 7.61575 7.07234C7.49393 7.1228 7.38324 7.19676 7.29 7.29C7.19676 7.38324 7.1228 7.49393 7.07234 7.61575C7.02188 7.73757 6.99591 7.86814 6.99591 8C6.99591 8.13186 7.02188 8.26243 7.07234 8.38425C7.1228 8.50607 7.19676 8.61676 7.29 8.71L9.59 11H2C1.73478 11 1.48043 11.1054 1.29289 11.2929C1.10536 11.4804 1 11.7348 1 12V12ZM14 2H4C3.20435 2 2.44129 2.31607 1.87868 2.87868C1.31607 3.44129 1 4.20435 1 5V8C1 8.26522 1.10536 8.51957 1.29289 8.70711C1.48043 8.89464 1.73478 9 2 9C2.26522 9 2.51957 8.89464 2.70711 8.70711C2.89464 8.51957 3 8.26522 3 8V5C3 4.73478 3.10536 4.48043 3.29289 4.29289C3.48043 4.10536 3.73478 4 4 4H14C14.2652 4 14.5196 4.10536 14.7071 4.29289C14.8946 4.48043 15 4.73478 15 5V19C15 19.2652 14.8946 19.5196 14.7071 19.7071C14.5196 19.8946 14.2652 20 14 20H4C3.73478 20 3.48043 19.8946 3.29289 19.7071C3.10536 19.5196 3 19.2652 3 19V16C3 15.7348 2.89464 15.4804 2.70711 15.2929C2.51957 15.1054 2.26522 15 2 15C1.73478 15 1.48043 15.1054 1.29289 15.2929C1.10536 15.4804 1 15.7348 1 16V19C1 19.7956 1.31607 20.5587 1.87868 21.1213C2.44129 21.6839 3.20435 22 4 22H14C14.7956 22 15.5587 21.6839 16.1213 21.1213C16.6839 20.5587 17 19.7956 17 19V5C17 4.20435 16.6839 3.44129 16.1213 2.87868C15.5587 2.31607 14.7956 2 14 2Z" fill="black"/>
</svg>
