<svg width="140" height="140" viewBox="0 0 140 140" fill="none" xmlns="http://www.w3.org/2000/svg">
<path d="M140 70C140 31.4033 108.597 0 70 0C31.4033 0 0 31.4033 0 70C0 90.3865 8.76654 108.762 22.7207 121.566L22.6545 121.624L24.9251 123.539C25.0727 123.663 25.2331 123.765 25.3807 123.887C26.5873 124.888 27.8371 125.837 29.1098 126.756C29.5222 127.054 29.9345 127.352 30.3545 127.642C31.7138 128.579 33.1087 129.467 34.5342 130.309C34.8447 130.493 35.1578 130.671 35.4709 130.849C37.0313 131.737 38.6247 132.575 40.2564 133.344C40.376 133.4 40.4982 133.451 40.6178 133.507C45.9353 135.978 51.6116 137.793 57.5476 138.865C57.7029 138.893 57.8582 138.921 58.016 138.949C59.8589 139.267 61.7222 139.521 63.6084 139.692C63.8375 139.712 64.0665 139.725 64.2982 139.745C66.1767 139.901 68.0756 140 70 140C71.9065 140 73.7876 139.901 75.656 139.751C75.8927 139.73 76.1295 139.717 76.3662 139.697C78.2371 139.527 80.0851 139.28 81.9102 138.967C82.068 138.939 82.2284 138.911 82.3862 138.88C88.2331 137.831 93.828 136.057 99.0767 133.649C99.2702 133.56 99.4662 133.476 99.6596 133.384C101.23 132.646 102.765 131.849 104.269 131.002C104.644 130.791 105.015 130.577 105.387 130.358C106.756 129.551 108.103 128.708 109.411 127.812C109.882 127.492 110.343 127.153 110.809 126.817C111.926 126.013 113.023 125.183 114.09 124.315C114.327 124.124 114.581 123.959 114.813 123.763L117.142 121.818L117.073 121.759C131.149 108.951 140 90.4909 140 70ZM5.09091 70C5.09091 34.2084 34.2084 5.09091 70 5.09091C105.792 5.09091 134.909 34.2084 134.909 70C134.909 89.2869 126.445 106.627 113.046 118.524C112.298 118.007 111.544 117.544 110.773 117.157L89.2207 106.382C87.2862 105.415 86.0847 103.47 86.0847 101.309V93.7822C86.5836 93.1662 87.1105 92.4687 87.6553 91.7025C90.4451 87.7622 92.6825 83.3789 94.3142 78.6622C97.5393 77.1298 99.6215 73.9175 99.6215 70.2902V61.2665C99.6215 59.0596 98.812 56.9189 97.3636 55.2364V43.3567C97.496 42.0331 97.9644 34.58 92.5705 28.4302C87.8793 23.0745 80.2862 20.3636 70 20.3636C59.7138 20.3636 52.1207 23.0745 47.4295 28.4276C42.0356 34.5775 42.504 42.0356 42.6364 43.3542V55.2338C41.1905 56.9164 40.3785 59.0571 40.3785 61.264V70.2876C40.3785 73.0902 41.636 75.7044 43.7895 77.4684C45.8513 85.5451 50.0945 91.6593 51.6625 93.7313V101.098C51.6625 103.175 50.5298 105.084 48.7047 106.082L28.5778 117.06C27.9364 117.409 27.3 117.816 26.6636 118.272C13.4298 106.38 5.09091 89.1469 5.09091 70Z" fill="#D6E4EA"/>
</svg>
